<?xml version="1.0" encoding="UTF-8" standalone="no"?>
<!DOCTYPE svg PUBLIC "-//W3C//DTD SVG 1.1//EN" "http://www.w3.org/Graphics/SVG/1.1/DTD/svg11.dtd">
<svg height="100%" stroke-miterlimit="10" style="fill-rule:nonzero;clip-rule:evenodd;stroke-linecap:round;stroke-linejoin:round;" version="1.1" viewBox="0 0 1200 630" width="100%" xml:space="preserve" xmlns="http://www.w3.org/2000/svg" xmlns:xlink="http://www.w3.org/1999/xlink">
<defs>
<clipPath id="TextBounds">
<rect height="162" width="721.531" x="381.334" y="275.5"/>
</clipPath>
</defs>
<g id="Layer-1">
<path d="M318.93 194.698C337.888 194.698 353.302 210.085 353.302 229.07L353.302 400.93C353.302 419.888 337.888 435.302 318.93 435.302L147.07 435.302C128.085 435.302 112.698 419.888 112.698 400.93L112.698 229.07C112.698 210.085 128.085 194.698 147.07 194.698L318.93 194.698ZM318.93 220.477L147.07 220.477C142.322 220.477 138.477 224.322 138.477 229.07L138.477 400.93C138.477 405.656 142.322 409.523 147.07 409.523L318.93 409.523C323.656 409.523 327.523 405.656 327.523 400.93L327.523 229.07C327.523 224.322 323.656 220.477 318.93 220.477Z" fill="#000000" fill-rule="nonzero" opacity="1" stroke="none"/>
</g>
<g id="Layer-2">
<g fill="#000000" opacity="1" stroke="none">
<path clip-path="url(#TextBounds)" d="M453.587 337.453C459.171 341.03 462.377 347.18 463.205 355.904L444.558 355.904C444.296 353.505 443.62 351.608 442.53 350.212C440.479 347.682 436.99 346.417 432.061 346.417C428.004 346.417 425.114 347.049 423.391 348.314C421.668 349.579 420.807 351.062 420.807 352.764C420.807 354.901 421.723 356.45 423.555 357.409C425.387 358.412 431.865 360.135 442.988 362.578C450.403 364.323 455.964 366.962 459.672 370.495C463.336 374.072 465.168 378.543 465.168 383.908C465.168 390.975 462.54 396.743 457.284 401.214C452.028 405.685 443.904 407.921 432.911 407.921C421.701 407.921 413.424 405.555 408.081 400.822C402.737 396.089 400.066 390.059 400.066 382.73L418.975 382.73C419.367 386.046 420.218 388.401 421.527 389.797C423.839 392.283 428.113 393.526 434.351 393.526C438.015 393.526 440.927 392.981 443.086 391.891C445.245 390.8 446.325 389.164 446.325 386.983C446.325 384.89 445.452 383.298 443.707 382.207C441.963 381.117 435.485 379.241 424.275 376.58C416.205 374.574 410.513 372.065 407.198 369.056C403.882 366.09 402.225 361.815 402.225 356.231C402.225 349.645 404.809 343.985 409.978 339.252C415.147 334.52 422.421 332.153 431.799 332.153C440.698 332.153 447.96 333.92 453.587 337.453Z"/>
<path clip-path="url(#TextBounds)" d="M519.017 353.811C517.447 350.365 514.371 348.642 509.791 348.642C504.47 348.642 500.893 350.365 499.061 353.811C498.058 355.773 497.556 358.696 497.556 362.578L497.556 405.5L478.647 405.5L478.647 334.312L496.771 334.312L496.771 344.716C499.083 341.008 501.264 338.369 503.314 336.799C506.934 334.007 511.623 332.611 517.381 332.611C522.834 332.611 527.239 333.811 530.598 336.21C533.302 338.435 535.353 341.292 536.748 344.781C539.191 340.594 542.223 337.519 545.843 335.556C549.682 333.593 553.956 332.611 558.667 332.611C561.808 332.611 564.905 333.222 567.958 334.443C571.012 335.665 573.782 337.802 576.268 340.855C578.274 343.342 579.627 346.395 580.325 350.016C580.761 352.415 580.979 355.926 580.979 360.55L580.848 405.5L561.742 405.5L561.742 360.092C561.742 357.387 561.306 355.163 560.434 353.418C558.776 350.103 555.723 348.445 551.274 348.445C546.127 348.445 542.572 350.583 540.609 354.857C539.605 357.126 539.104 359.852 539.104 363.036L539.104 405.5L520.325 405.5L520.325 363.036C520.325 358.805 519.889 355.73 519.017 353.811Z"/>
<path clip-path="url(#TextBounds)" d="M657.597 343.211C663.616 350.757 666.626 359.677 666.626 369.972C666.626 380.44 663.616 389.393 657.597 396.831C651.577 404.268 642.439 407.986 630.182 407.986C617.925 407.986 608.786 404.268 602.767 396.831C596.747 389.393 593.738 380.44 593.738 369.972C593.738 359.677 596.747 350.757 602.767 343.211C608.786 335.665 617.925 331.892 630.182 331.892C642.439 331.892 651.577 335.665 657.597 343.211ZM630.116 347.66C624.664 347.66 620.466 349.59 617.521 353.451C614.577 357.311 613.105 362.818 613.105 369.972C613.105 377.125 614.577 382.643 617.521 386.525C620.466 390.408 624.664 392.349 630.116 392.349C635.569 392.349 639.756 390.408 642.679 386.525C645.602 382.643 647.063 377.125 647.063 369.972C647.063 362.818 645.602 357.311 642.679 353.451C639.756 349.59 635.569 347.66 630.116 347.66Z"/>
<path clip-path="url(#TextBounds)" d="M708.959 386.787L723.681 334.182L743.506 334.182L719.035 404.322C714.325 417.844 710.595 426.23 707.847 429.48C705.099 432.73 699.603 434.354 691.359 434.354C689.701 434.354 688.371 434.344 687.367 434.322C686.364 434.3 684.859 434.224 682.853 434.093L682.853 419.175L685.208 419.306C687.04 419.393 688.785 419.327 690.443 419.109C692.1 418.891 693.496 418.39 694.63 417.604C695.721 416.863 696.735 415.314 697.673 412.959C698.61 410.604 698.992 409.164 698.818 408.641L672.646 334.182L693.387 334.182L708.959 386.787Z"/>
<path clip-path="url(#TextBounds)" d="M757.181 341.902C762.11 335.621 770.572 332.48 782.568 332.48C790.376 332.48 797.311 334.029 803.374 337.126C809.437 340.223 812.469 346.068 812.469 354.661L812.469 387.376C812.469 389.644 812.513 392.392 812.6 395.62C812.731 398.063 813.102 399.72 813.712 400.593C814.323 401.465 815.239 402.185 816.46 402.752L816.46 405.5L796.177 405.5C795.61 404.061 795.217 402.708 794.999 401.443C794.781 400.178 794.607 398.739 794.476 397.125C791.902 399.917 788.936 402.294 785.577 404.257C781.564 406.569 777.028 407.725 771.968 407.725C765.512 407.725 760.18 405.882 755.971 402.196C751.761 398.51 749.657 393.286 749.657 386.525C749.657 377.758 753.037 371.411 759.798 367.485C763.506 365.348 768.958 363.821 776.156 362.905L782.502 362.12C785.948 361.684 788.413 361.139 789.896 360.484C792.557 359.35 793.887 357.584 793.887 355.185C793.887 352.262 792.873 350.245 790.845 349.132C788.816 348.02 785.839 347.464 781.913 347.464C777.508 347.464 774.389 348.554 772.557 350.735C771.248 352.349 770.376 354.53 769.94 357.278L751.947 357.278C752.339 351.041 754.084 345.915 757.181 341.902ZM771.052 392.021C772.797 393.461 774.934 394.181 777.464 394.181C781.477 394.181 785.174 393.003 788.554 390.647C791.935 388.292 793.691 383.995 793.822 377.758L793.822 370.822C792.644 371.564 791.455 372.164 790.256 372.622C789.056 373.08 787.409 373.505 785.316 373.897L781.128 374.683C777.202 375.381 774.389 376.231 772.688 377.234C769.809 378.936 768.369 381.575 768.369 385.151C768.369 388.336 769.264 390.626 771.052 392.021Z"/>
<path clip-path="url(#TextBounds)" d="M828.696 386.002L848.521 386.002L848.521 405.5L828.696 405.5L828.696 386.002Z"/>
<path clip-path="url(#TextBounds)" d="M931.158 309.188L931.158 405.5L913.034 405.5L913.034 395.62C910.374 399.851 907.342 402.926 903.94 404.846C900.537 406.765 896.306 407.725 891.246 407.725C882.915 407.725 875.903 404.355 870.211 397.616C864.518 390.876 861.672 382.229 861.672 371.673C861.672 359.503 864.475 349.928 870.08 342.949C875.685 335.97 883.177 332.48 892.555 332.48C896.873 332.48 900.712 333.429 904.071 335.327C907.429 337.224 910.156 339.852 912.249 343.211L912.249 309.188L931.158 309.188ZM880.908 370.299C880.908 376.885 882.217 382.142 884.834 386.067C887.408 390.037 891.334 392.021 896.612 392.021C901.89 392.021 905.903 390.059 908.651 386.133C911.399 382.207 912.773 377.125 912.773 370.888C912.773 362.164 910.57 355.926 906.164 352.175C903.46 349.907 900.319 348.772 896.742 348.772C891.29 348.772 887.288 350.833 884.736 354.956C882.184 359.078 880.908 364.192 880.908 370.299Z"/>
<path clip-path="url(#TextBounds)" d="M1009.15 384.562C1008.67 388.794 1006.47 393.09 1002.54 397.452C996.436 404.388 987.886 407.855 976.894 407.855C967.821 407.855 959.817 404.933 952.881 399.088C945.946 393.243 942.478 383.734 942.478 370.561C942.478 358.216 945.608 348.751 951.867 342.164C958.126 335.577 966.251 332.284 976.24 332.284C982.172 332.284 987.515 333.396 992.27 335.621C997.024 337.846 1000.95 341.357 1004.05 346.155C1006.84 350.386 1008.65 355.294 1009.48 360.877C1009.96 364.148 1010.15 368.859 1010.07 375.01L961.256 375.01C961.518 382.163 963.764 387.18 967.995 390.059C970.569 391.847 973.666 392.741 977.286 392.741C981.125 392.741 984.244 391.651 986.643 389.47C987.951 388.292 989.107 386.656 990.111 384.562L1009.15 384.562ZM990.7 362.709C990.394 357.78 988.9 354.04 986.218 351.488C983.535 348.936 980.209 347.66 976.24 347.66C971.921 347.66 968.573 349.012 966.196 351.717C963.819 354.421 962.325 358.085 961.714 362.709L990.7 362.709Z"/>
<path clip-path="url(#TextBounds)" d="M1015.63 334.182L1036.57 334.182L1051.42 386.787L1066.6 334.182L1086.62 334.182L1060.91 405.5L1041.21 405.5L1015.63 334.182Z"/>
</g>
</g>
</svg>
